<svg xmlns="http://www.w3.org/2000/svg" width="1080" height="1920" viewBox="0 0 1080 1920"><rect width="1080" height="1920" fill="#080808"/><g stroke="#151515" stroke-width="1"><path d="M70 0v1920M240 0v1920M410 0v1920M580 0v1920M750 0v1920M920 0v1920"/><path d="M0 120h1080M0 290h1080M0 460h1080M0 630h1080M0 800h1080M0 970h1080M0 1140h1080M0 1310h1080M0 1480h1080M0 1650h1080"/></g><text x="70" y="180" fill="#8A8A8A" font-family="Inter,Arial,sans-serif" font-size="28">PERFORMANS / 01</text><text x="70" y="570" fill="#FFFFFF" font-family="Inter,Arial,sans-serif" font-weight="800" font-size="112">REKLAM VAR.</text><text x="70" y="700" fill="#FF5A00" font-family="Inter,Arial,sans-serif" font-weight="800" font-size="122">SATIŞ YOK.</text><text x="70" y="815" fill="#F3F3F1" font-family="Inter,Arial,sans-serif" font-size="40">Sorun bütçede olmayabilir.</text><polyline points="100,1260 270,1200 430,1270 590,1140 760,1330 940,1460" fill="none" stroke="#FF5A00" stroke-width="14"/><g fill="#FF5A00"><circle cx="100" cy="1260" r="12"/><circle cx="270" cy="1200" r="12"/><circle cx="430" cy="1270" r="12"/><circle cx="590" cy="1140" r="12"/><circle cx="760" cy="1330" r="12"/><circle cx="940" cy="1460" r="12"/></g><rect x="70" y="1650" width="940" height="2" fill="#2A2A2A"/><rect x="70" y="1650" width="150" height="5" fill="#FF5A00"/><rect x="70" y="1802" width="12" height="38" fill="#FF5A00"/><text x="95" y="1834" fill="#FFFFFF" font-family="Inter,Arial,sans-serif" font-weight="700" font-size="28">ACA DİJİTAL</text><text x="922" y="1834" fill="#8A8A8A" font-family="Inter,Arial,sans-serif" font-size="24">REEL</text></svg>